# xmcd
#
# Track frame offsets: 
#        150
#        16167
#        30295
#        45835
#        61470
#        79120
#        99890
#        114825
#        134295
#        154432
#
# Disc length: 2278 seconds
#
# Revision: 4
# Processed by: cddbd v1.4PL0 Copyright (c) Steve Scherf et al.
# Submitted via: ExactAudioCopy v0.90b4
#
DISCID=6808e40a
DTITLE=Farmer's Daughter - Makin' Hay
DYEAR=1996
DGENRE=Country
TTITLE0=Cornfields Or Cadillacs
TTITLE1=Lonely Gypsy Wind
TTITLE2=Now That I'm On My Own
TTITLE3=You Said
TTITLE4=Inclemency
TTITLE5=Ode To Billie Joe
TTITLE6=Tall Drink Of Water
TTITLE7=Walking Away For You
TTITLE8=This That And The Other Thing
TTITLE9=What It's All About
EXTD=YEAR: 1996
EXTT0=
EXTT1=
EXTT2=
EXTT3=
EXTT4=
EXTT5=
EXTT6=
EXTT7=
EXTT8=
EXTT9=
PLAYORDER=
